<?xml version="1.0" encoding="UTF-8"?>
<svg width="30px" height="30px" viewBox="0 0 30 30" version="1.1" xmlns="http://www.w3.org/2000/svg" xmlns:xlink="http://www.w3.org/1999/xlink">
    <!-- Generator: Sketch 52.2 (67145) - http://www.bohemiancoding.com/sketch -->
    <title>Facebook Icon</title>
    <desc>Created with Sketch.</desc>
    <g id="Symbols" stroke="none" stroke-width="1" fill="none" fill-rule="evenodd">
        <g id="Mobile_hamburger_menu" transform="translate(-119.000000, -588.000000)">
            <g id="Facebook-Icon" transform="translate(119.000000, 588.000000)">
                <polygon id="Clip-2" points="0 0 30 0 30 30 0 30"></polygon>
                <path d="M21.9358436,29.0311945 C23.4902895,29.0311945 24.8040772,28.9488 26.1038187,29.0499206 C28.3727479,29.2250089 29.1087687,28.1941414 29.0853584,26.0069422 C29.0038905,18.6008009 29.0095089,11.1927871 29.0816127,3.78664579 C29.1022138,1.64719791 28.2528871,0.898157074 26.1571943,0.917819395 C18.7501658,0.989914576 11.3412645,1.00021389 3.93423606,0.91313789 C1.6896536,0.88598516 0.904002924,1.73521021 0.933031733,3.94581697 C1.02199099,10.6506687 0.964869782,17.3564568 0.964869782,24.0613086 C0.964869782,29.0311945 0.964869782,29.0311945 5.94190598,29.0311945 L15.8154468,29.0311945 L15.8154468,19.3077082 C14.5213238,19.2206322 13.3966915,19.1457281 12.3385446,19.0745692 L12.3385446,13.5269856 C13.5942747,13.4005849 14.6655314,13.2929103 15.8191925,13.176809 C15.8819322,12.5597866 15.9671458,12.0317128 15.985874,11.5017664 C16.1900121,5.53284724 19.5451806,2.4430538 25.4211735,2.94116595 C25.9877035,2.9889173 26.9035156,3.62279311 26.9634461,4.07596282 C27.1591564,5.57404449 27.0374227,7.1133234 27.0374227,8.57863454 C21.4301804,9.32767537 21.288782,9.46812053 22.2289409,13.2386048 C23.781514,13.3144452 25.3865262,13.3940308 27.309919,13.4885972 C26.6563025,15.4248678 26.3772514,17.2899794 25.4118094,18.6775776 C24.9164468,19.391039 23.1962557,19.254339 21.9358436,19.5202485 L21.9358436,29.0311945 Z M16.9363334,14.0953203 C15.5663609,14.2245298 14.4979135,14.324714 13.2646573,14.4398791 L13.2646573,18.1270326 C14.340596,18.2038093 15.468974,18.2833949 16.7621606,18.3751524 L16.7621606,29.9712408 C13.7347367,29.9712408 10.6501916,29.9319161 7.56751931,29.9787312 C-0.711309859,30.1041955 0.00410983124,29.9131901 0.0228380954,22.4930043 C0.0378207067,16.2516216 0.0134739633,10.0111751 0.0312658143,3.77072868 C0.0396935331,0.890666665 0.911494229,0.0199066944 3.81343876,0.0124162861 C11.2251493,-0.00537343374 18.6377962,-0.00256453061 26.0495068,0.0114799851 C29.1209421,0.0170977913 29.9833787,0.856959828 29.9889971,3.85218687 C30.0030433,11.3407226 30.0049162,18.8301947 29.9871243,26.3196667 C29.979633,29.0826911 29.1218785,29.9206805 26.3416677,29.9646867 C24.8593256,29.9871579 23.3769835,29.9637504 21.8946414,29.9422155 C21.6745843,29.9394065 21.4554636,29.8326682 21.0649793,29.7278025 L21.0649793,18.4088592 C22.2832529,18.3217832 23.4930987,18.2356435 24.7909674,18.1429497 C25.1645963,17.0128343 25.5269882,15.9154895 25.9848943,14.5307003 C25.1224577,14.4323887 24.4707141,14.3265866 23.813352,14.2900709 C22.4087322,14.2104853 20.7915466,14.7376228 20.8421129,12.2508072 C20.9085983,8.95409125 21.37025,7.94944023 23.9931434,7.94756763 C25.8669062,7.94663133 26.1600035,7.16575626 26.1581307,5.55438216 C26.1571943,3.73889444 25.0906197,3.7960088 23.8498722,3.83252454 C19.7118622,3.95517998 17.0543215,6.62082905 16.9400791,10.8126488 C16.9110503,11.8809683 16.9363334,12.9511604 16.9363334,14.0953203 Z" id="Fill-1" fill="#FFFFFF"></path>
            </g>
        </g>
    </g>
</svg>