<?xml version="1.0" encoding="UTF-8"?>
<svg width="30px" height="30px" viewBox="0 0 30 30" version="1.1" xmlns="http://www.w3.org/2000/svg" xmlns:xlink="http://www.w3.org/1999/xlink">
    <!-- Generator: Sketch 52.2 (67145) - http://www.bohemiancoding.com/sketch -->
    <title>Linkedin Icon</title>
    <desc>Created with Sketch.</desc>
    <g id="Symbols" stroke="none" stroke-width="1" fill="none" fill-rule="evenodd">
        <g id="Mobile_hamburger_menu" transform="translate(-173.000000, -586.000000)">
            <g id="Linkedin-Icon" transform="translate(173.000000, 586.000000)">
                <g id="Group-3" transform="translate(8.750000, 7.500000)">
                    <polygon id="Clip-2" points="0.727386903 0.212321709 21.0314388 0.212321709 21.0314388 22.5 0.727386903 22.5"></polygon>
                    <path d="M7.150625,21.1366957 C7.150625,16.8470217 7.23755682,12.8557174 7.11681818,8.87126087 C7.04823864,6.59582609 8.29619318,5.82691304 10.1526705,5.61071739 C12.6611364,5.31821739 14.3910795,6.903 14.4722159,9.66267391 C14.5707386,13.0014783 14.5427273,16.3441957 14.51375,19.6849565 C14.5011932,21.0427826 15.2536364,21.4849565 16.3460795,21.2345217 C17.5901705,20.9478913 19.8484659,22.3018043 19.9305682,20.1153913 C20.1160227,15.2514783 19.9875568,10.3435435 19.5171591,5.50017391 C19.2505682,2.75908696 16.840625,1.0578913 14.0906818,1.38756522 C11.8642614,1.65365217 9.721875,2.63778261 8.20056818,3.10245652 C5.78772727,2.91658696 3.88295455,2.76984783 1.92602273,2.61821739 L1.92602273,21.1366957 L7.150625,21.1366957 Z M0.749545455,1.85223913 C1.87482955,1.79158696 2.65914773,1.72506522 3.44443182,1.7103913 C6.21079545,1.65854348 8.88829545,1.67615217 11.655625,0.732130435 C16.6416477,-0.969065217 20.33625,1.60767391 20.7767045,6.9656087 C21.1505114,11.4998478 21.0201136,16.0820217 20.9582955,20.6407174 C20.9505682,21.1826739 20.0175,22.1110435 19.433125,22.1824565 C13.5497727,22.9034348 13.5497727,22.8633261 13.5430114,16.9233261 C13.5401136,14.4786522 13.53625,12.0339783 13.4947159,9.58930435 C13.4657386,7.88028261 12.5944886,6.79441304 10.9060795,6.61245652 C9.26017045,6.43441304 8.07113636,6.90691304 8.10397727,8.97006522 C8.16289773,12.636587 8.05568182,16.3070217 8.14744318,19.971587 C8.18801136,21.5925652 7.80261364,22.3331087 6.02534091,22.2822391 C-0.347727273,22.1012609 0.852897727,23.1127826 0.764034091,17.0602826 C0.691590909,12.096587 0.749545455,7.12995652 0.749545455,1.85223913 Z" id="Fill-1" fill="#FFFFFF"></path>
                </g>
                <g id="Group-6" transform="translate(0.000000, 8.750000)">
                    <polygon id="Clip-5" points="0 0.469834835 7.3165465 0.469834835 7.3165465 21.0293973 0 21.0293973"></polygon>
                    <path d="M0.9650625,1.84305114 C0.9650625,6.78367614 0.9650625,11.5861761 0.9650625,16.3886761 C0.966,20.1016307 1.699125,20.7603807 5.1650625,19.9741307 C5.6131875,19.8727102 6.2713125,19.2178239 6.2769375,18.812142 C6.3500625,13.2079375 6.3256875,7.60083523 6.3256875,1.84305114 L0.9650625,1.84305114 Z M0.0219375,1.13600568 C0.4738125,0.931232955 0.54225,0.879073864 0.615375,0.869414773 C7.2969375,-0.00473295455 7.2969375,-0.00473295455 7.296,6.84646023 C7.296,10.8627102 7.252875,14.8789602 7.3156875,18.8942443 C7.339125,20.4107216 6.8881875,21.064642 5.317875,21.0279375 C-1.0524375,20.8811193 0.1185,21.8383352 0.0350625,15.8071989 C-0.0324375,10.9225966 0.0219375,6.03799432 0.0219375,1.13600568 Z" id="Fill-4" fill="#FFFFFF"></path>
                </g>
                <g id="Group-9">
                    <polygon id="Clip-8" points="0.0967771326 0.16875 7.21105512 0.16875 7.21105512 7.20694512 0.0967771326 7.20694512"></polygon>
                    <path d="M6.640875,4.03790625 C6.6211875,3.67509375 6.6015,3.31321875 6.580875,2.95040625 C5.594625,2.34665625 4.664625,1.39228125 3.609,1.22259375 C2.118375,0.98259375 1.0936875,2.02884375 1.1115,3.58509375 C1.1293125,5.17040625 2.1024375,6.45759375 3.6755625,6.19040625 C4.754625,6.00759375 5.658375,4.79165625 6.640875,4.03790625 M3.614625,7.20665625 C1.750875,7.18228125 0.1215,5.61384375 0.097125,3.82040625 C0.069,1.73821875 1.7499375,0.09009375 3.817125,0.17071875 C5.7661875,0.24759375 7.28775,1.92290625 7.2080625,3.90571875 C7.135875,5.70946875 5.4793125,7.23103125 3.614625,7.20665625" id="Fill-7" fill="#FFFFFF"></path>
                </g>
            </g>
        </g>
    </g>
</svg>