<?xml version="1.0" encoding="UTF-8"?>
<svg width="130px" height="127px" viewBox="0 0 130 127" version="1.1" xmlns="http://www.w3.org/2000/svg" xmlns:xlink="http://www.w3.org/1999/xlink">
    <!-- Generator: Sketch 52.2 (67145) - http://www.bohemiancoding.com/sketch -->
    <title>Group</title>
    <desc>Created with Sketch.</desc>
    <g id="Symbols" stroke="none" stroke-width="1" fill="none" fill-rule="evenodd">
        <g id="mail-icon-desktop" transform="translate(0.000000, -3.000000)" stroke="#FFFFFF" stroke-width="4">
            <g id="Group" transform="translate(2.000000, 6.000000)">
                <path d="M20.6557377,30.2105263 L20.6557377,14.9824561 L42,14.9824561 L63,0 L84,14.9824561 L105.344262,14.9824561 L105.344262,30.2105263 L126,44.9473684 L126,122 L0,122 L0,44.9473684 L20.6557377,30.2105263 Z" id="Combined-Shape"></path>
                <polyline id="Path-6" points="0 122 63 70.6315789 126 122"></polyline>
                <path d="M0,44.9473684 L50.6065574,80.2631579" id="Path-7"></path>
                <path d="M126,44.9473684 L75.3934426,80.2631579" id="Path-8"></path>
                <path d="M37.1803279,36.3859649 L88.8196721,36.3859649" id="Path-10"></path>
                <path d="M37.1803279,53.5087719 L88.8196721,53.5087719" id="Path-11"></path>
                <path d="M41.3114754,14.9824561 L86.7540984,14.9824561" id="Path-12"></path>
                <path d="M20.6557377,25.6842105 L20.6557377,59.9298246" id="Path-13"></path>
                <path d="M105.344262,27.8245614 L105.344262,59.9298246" id="Path-14"></path>
            </g>
        </g>
    </g>
</svg>