<?xml version="1.0" encoding="UTF-8"?>
<svg width="30px" height="27px" viewBox="0 0 30 27" version="1.1" xmlns="http://www.w3.org/2000/svg" xmlns:xlink="http://www.w3.org/1999/xlink">
    <!-- Generator: Sketch 52.2 (67145) - http://www.bohemiancoding.com/sketch -->
    <title>Twitter Icon</title>
    <desc>Created with Sketch.</desc>
    <g id="Symbols" stroke="none" stroke-width="1" fill="none" fill-rule="evenodd">
        <g id="Mobile_hamburger_menu" transform="translate(-227.000000, -589.000000)">
            <g id="Twitter-Icon" transform="translate(227.000000, 589.000000)">
                <polygon id="Clip-2" points="0 0 30 0 30 26.25 0 26.25"></polygon>
                <path d="M24.7580971,4.75818763 C24.7225588,4.58197881 24.6862127,4.40576999 24.6498667,4.22956118 C25.4260561,3.77504124 26.2030531,3.3205213 26.7361279,3.00845054 C25.914708,2.6840287 24.99475,2.53416887 24.3453679,2.02612756 C22.2259914,0.366965103 20.0500767,0.590108044 17.9064696,1.73464195 C15.9203618,2.79601188 15.2669413,4.72854502 15.2402875,6.9122169 C15.2322106,7.55776696 15.2927873,8.20496383 15.3242872,8.90321185 C9.86834666,8.74100093 5.35094096,6.82328909 1.53137873,2.78695441 C0.575074711,6.36300531 2.11856877,8.52526864 5.20071077,10.4701529 C3.50617882,10.691649 2.42952912,10.8324514 1.19376464,10.9938389 C2.14845328,13.8938737 4.35586786,14.8226753 7.3895485,15.3825912 C5.99628463,16.2768098 4.97294241,16.9338875 3.2986027,18.0076085 C5.83555448,18.8392483 7.89677732,19.5152643 10.428883,20.3452573 C7.93150796,21.7598682 5.64574752,23.054262 3.36644859,24.3461855 C3.75817785,24.5026326 4.34698328,24.8048225 4.97132703,24.9793845 C15.1369033,27.8201341 26.3557063,19.120853 26.5204749,8.31777041 C26.5374364,7.2012323 26.845166,6.08963462 27.0268961,4.92204536 C26.4082061,4.87758145 25.5827478,4.81747284 24.7580971,4.75818763 M5.28147969,16.1104818 C1.3690332,13.7851842 0.592843874,12.8069782 0,9.60063647 C0.781035458,9.71261964 1.51280187,9.81719216 2.61852839,9.97446265 C0.411113803,7.20287911 -0.325498748,4.46670201 1.23253372,1.16484521 C4.68055892,5.25058423 8.84904289,7.73397578 14.2726759,7.98923154 C14.3195218,7.4046135 14.3647524,6.8833977 14.4051369,6.36053509 C14.8194815,1.01169175 20.3125757,-1.82164721 24.5949439,1.2932965 C26.4574752,2.64779885 27.7029319,0.930174592 29.5032711,0.963934225 C28.9249657,1.88450178 28.4379291,2.66097334 27.8604313,3.57907068 L30,3.57907068 C29.8182699,3.93642875 29.7528471,4.30202088 29.545271,4.4354126 C27.6358937,5.65981685 27.3782409,7.46883914 27.1860108,9.63686632 C26.068169,22.2168584 12.4448752,29.955225 1.33349487,24.4491112 C1.10330345,24.3346578 0.906227284,24.1518617 0.634843712,23.9600082 C3.20329537,23.0493215 5.69017042,22.1691009 8.17623778,21.2888802 L8.1075842,20.5502853 C5.51813262,20.2316273 3.5077942,19.0821529 2.19691463,16.6119359 C3.17179549,16.453842 3.98917696,16.3204503 5.28147969,16.1104818" id="Fill-1" fill="#FFFFFF"></path>
            </g>
        </g>
    </g>
</svg>