<svg xmlns="http://www.w3.org/2000/svg" xmlns:xlink="http://www.w3.org/1999/xlink" viewBox="0 0 2563 1006"><defs><style>.cls-1{fill:url(#linear-gradient);}.cls-2{fill:url(#linear-gradient-2);}.cls-3{fill:url(#linear-gradient-3);}.cls-4{fill:url(#linear-gradient-4);}.cls-5{fill:url(#linear-gradient-5);}.cls-6{fill:url(#linear-gradient-6);}.cls-7{fill:url(#linear-gradient-9);}.cls-10,.cls-12,.cls-8,.cls-9{fill:#00a3ff;}.cls-9{opacity:0.42;}.cls-10{opacity:0.5;}.cls-11{fill:url(#linear-gradient-10);}.cls-12{opacity:0.44;}.cls-13{fill:#1a1a24;}.cls-14{fill:url(#linear-gradient-11);}.cls-15{fill:url(#linear-gradient-12);}.cls-16{fill:url(#linear-gradient-13);}.cls-17{fill:url(#linear-gradient-14);}.cls-18{fill:url(#linear-gradient-15);}.cls-19{fill:url(#linear-gradient-16);}.cls-20{fill:url(#linear-gradient-17);}.cls-21{fill:url(#linear-gradient-18);}.cls-22{fill:url(#linear-gradient-19);}.cls-23{fill:url(#linear-gradient-20);}.cls-24{fill:url(#linear-gradient-21);}.cls-25{fill:url(#linear-gradient-22);}</style><linearGradient id="linear-gradient" x1="512.79" y1="565.14" x2="515.31" y2="565.14" gradientTransform="translate(56)" gradientUnits="userSpaceOnUse"><stop offset="0" stop-color="#4d4d4d"/><stop offset="0.02" stop-color="#6e6e6e"/><stop offset="0.04" stop-color="#939393"/><stop offset="0.07" stop-color="#b3b3b3"/><stop offset="0.1" stop-color="#cdcdcd"/><stop offset="0.13" stop-color="#e0e0e0"/><stop offset="0.17" stop-color="#eee"/><stop offset="0.22" stop-color="#f7f7f7"/><stop offset="0.3" stop-color="#f9f9f9"/><stop offset="0.4" stop-color="#f4f4f4"/><stop offset="0.72" stop-color="#cacaca"/><stop offset="1" stop-color="#999"/></linearGradient><linearGradient id="linear-gradient-2" x1="257.43" y1="675.02" x2="690.05" y2="675.02" xlink:href="#linear-gradient"/><linearGradient id="linear-gradient-3" x1="495.69" y1="361.9" x2="495.96" y2="361.99" xlink:href="#linear-gradient"/><linearGradient id="linear-gradient-4" x1="551.58" y1="362.04" x2="552.07" y2="361.85" gradientTransform="matrix(1, 0, 0, 1, 0, 0)" xlink:href="#linear-gradient"/><linearGradient id="linear-gradient-5" x1="306.86" y1="232.55" x2="600.78" y2="339.53" xlink:href="#linear-gradient"/><linearGradient id="linear-gradient-6" x1="259.44" y1="401.93" x2="773.4" y2="214.86" gradientTransform="matrix(1, 0, 0, 1, 0, 0)" xlink:href="#linear-gradient"/><linearGradient id="linear-gradient-9" x1="265.95" y1="247.12" x2="303.1" y2="311.47" gradientTransform="translate(56)" gradientUnits="userSpaceOnUse"><stop offset="0" stop-color="#cfae59"/><stop offset="0.08" stop-color="#d1b15b"/><stop offset="0.13" stop-color="#d7ba61"/><stop offset="0.18" stop-color="#e2ca6b"/><stop offset="0.2" stop-color="#e9d471"/><stop offset="0.25" stop-color="#f5e67d"/><stop offset="0.26" stop-color="#f5e887"/><stop offset="0.28" stop-color="#f5f1b2"/><stop offset="0.29" stop-color="#f5f5c3"/><stop offset="0.3" stop-color="#f5f3bb"/><stop offset="0.31" stop-color="#f5eea4"/><stop offset="0.33" stop-color="#f5e67f"/><stop offset="0.33" stop-color="#f5e67d"/><stop offset="0.34" stop-color="#f3e37b"/><stop offset="0.43" stop-color="#e3cc6c"/><stop offset="0.53" stop-color="#d8bb61"/><stop offset="0.63" stop-color="#d1b15b"/><stop offset="0.77" stop-color="#cfae59"/></linearGradient><linearGradient id="linear-gradient-10" x1="393.53" y1="391.53" x2="690.38" y2="391.53" gradientTransform="translate(56)" gradientUnits="userSpaceOnUse"><stop offset="0" stop-color="#cfae59"/><stop offset="0.11" stop-color="#d1b15b"/><stop offset="0.18" stop-color="#d7ba61"/><stop offset="0.25" stop-color="#e2ca6b"/><stop offset="0.28" stop-color="#e9d471"/><stop offset="0.32" stop-color="#f5e67d"/><stop offset="0.32" stop-color="#f5e887"/><stop offset="0.34" stop-color="#f5f1b2"/><stop offset="0.34" stop-color="#f5f5c3"/><stop offset="0.36" stop-color="#f5f3bb"/><stop offset="0.39" stop-color="#f5eea4"/><stop offset="0.42" stop-color="#f5e67f"/><stop offset="0.42" stop-color="#f5e67d"/><stop offset="0.43" stop-color="#f3e37b"/><stop offset="0.48" stop-color="#e3cc6c"/><stop offset="0.53" stop-color="#d8bb61"/><stop offset="0.59" stop-color="#d1b15b"/><stop offset="0.67" stop-color="#cfae59"/><stop offset="0.73" stop-color="#cbab57"/><stop offset="0.78" stop-color="#c1a052"/><stop offset="0.84" stop-color="#ae8e4a"/><stop offset="0.89" stop-color="#94753e"/><stop offset="0.94" stop-color="#73542f"/><stop offset="0.99" stop-color="#4b2d1c"/><stop offset="0.99" stop-color="#47291a"/></linearGradient><linearGradient id="linear-gradient-11" x1="977.65" y1="768" x2="977.65" y2="243" gradientTransform="matrix(1, 0, 0, 1, 0, 0)" xlink:href="#linear-gradient"/><linearGradient id="linear-gradient-12" x1="1079.14" y1="771.5" x2="1079.14" y2="413.8" gradientTransform="matrix(1, 0, 0, 1, 0, 0)" xlink:href="#linear-gradient"/><linearGradient id="linear-gradient-13" x1="1213.53" y1="771.5" x2="1213.53" y2="413.8" gradientTransform="matrix(1, 0, 0, 1, 0, 0)" xlink:href="#linear-gradient"/><linearGradient id="linear-gradient-14" x1="1338.82" y1="768" x2="1338.82" y2="418" gradientTransform="matrix(1, 0, 0, 1, 0, 0)" xlink:href="#linear-gradient"/><linearGradient id="linear-gradient-15" x1="1461.31" y1="771.5" x2="1461.31" y2="413.8" gradientTransform="matrix(1, 0, 0, 1, 0, 0)" xlink:href="#linear-gradient"/><linearGradient id="linear-gradient-16" x1="1595" y1="771.5" x2="1595" y2="413.8" gradientTransform="matrix(1, 0, 0, 1, 0, 0)" xlink:href="#linear-gradient"/><linearGradient id="linear-gradient-17" x1="1730.09" y1="771.5" x2="1730.09" y2="413.8" gradientTransform="matrix(1, 0, 0, 1, 0, 0)" xlink:href="#linear-gradient"/><linearGradient id="linear-gradient-18" x1="1863.78" y1="773.6" x2="1863.78" y2="418" gradientTransform="matrix(1, 0, 0, 1, 0, 0)" xlink:href="#linear-gradient"/><linearGradient id="linear-gradient-19" x1="1998.17" y1="768" x2="1998.17" y2="413.8" gradientTransform="matrix(1, 0, 0, 1, 0, 0)" xlink:href="#linear-gradient"/><linearGradient id="linear-gradient-20" x1="2091.96" y1="768" x2="2091.96" y2="418" gradientTransform="matrix(1, 0, 0, 1, 0, 0)" xlink:href="#linear-gradient"/><linearGradient id="linear-gradient-21" x1="2177.36" y1="768" x2="2177.36" y2="418" gradientTransform="matrix(1, 0, 0, 1, 0, 0)" xlink:href="#linear-gradient"/><linearGradient id="linear-gradient-22" x1="2300.9" y1="908" x2="2300.9" y2="418" gradientTransform="matrix(1, 0, 0, 1, 0, 0)" xlink:href="#linear-gradient"/></defs><title>logotyp</title><g id="Layer_1" data-name="Layer 1"><path class="cls-1" d="M571.31,565.56c-.84-.26-1.68-.54-2.52-.83.82.26,1.64.5,2.47.74Z"/><path class="cls-2" d="M745.5,732c-5-44.5-40-75-85-114.29-7.25-6.32-19-20.71-20.42-33.92a41,41,0,0,1,72.64-32.16l0,.06a40.17,40.17,0,0,1,3.06,3.47A44.05,44.05,0,0,0,675.35,523,56,56,0,0,0,627,603.17,256.38,256.38,0,0,0,643,627c8.33,10.62,16.31,20.13,19.23,23.33C718.5,712,722.5,776,682.5,776c-7.2,0-13.84-4.59-18.38-10.9a99,99,0,0,0-18.27-116.73s0,0,0,0c-8.63-10.2-22.36-24.89-35.33-42.34a378.89,378.89,0,0,1-23.43-36.61c-2.61-.44-5.2-1-7.77-1.6s-5.36-1.39-8-2.23c-.84-.26-1.68-.54-2.52-.83a105.07,105.07,0,0,1-35.33-18.9c-1.07-.85-2.12-1.74-3.16-2.65-.22.66-.45,1.32-.69,2A95.11,95.11,0,0,1,501.74,585l-5.4,4.57-6.61-2.51a94.86,94.86,0,0,1-23.89-13.29.9.9,0,0,1-.19-.15A94.88,94.88,0,0,1,446.54,554h0c-1.22-1.58-2.41-3.2-3.55-4.85s-2.23-3.32-3.29-5a104,104,0,0,1-121,1q-2.21-1.56-4.32-3.21c15.4,31.24,34.53,68.73,42.14,86.13,9.22,21.07,28,89.74,28,111,0,20.13-13.8,41.2-33.18,41.2A26.76,26.76,0,0,1,348,780a35.23,35.23,0,0,0-4.36-.28c-10.83,0-17.48,5.64-20.14,16.28-1.72,6.89-9.65,10.38-10,15-.77,10.22,4.95,16,10,16h77.94c11.94,0,10.06-15.54,10.06-18,0-18.14,18-29,24-34,2.92-2.44,8-10,8-20.5a289.93,289.93,0,0,0-2.82-40.63c-11.14-26.08-19.55-64.23-12.4-78.3,9.1-17.9,29.13-28,59.53-30.12,47.16-3.23,73.42,19.48,87.16,39.12,14.71,21,13.48,50.35,13.48,50.35s-10.28-25-23.55-43.82c-17.41-24.63-43.06-36-76.26-33.68C462.74,619.2,446,627.14,439,641c-5,9.81-4.27,40,4.52,64A205,205,0,0,0,456,732.89c2.35,3.63,4.82,7.3,7.41,11a298.81,298.81,0,0,0,29.44,35.89c-8.63,3.52-25.05-4.47-34.33-8.75-12.27-5.66-25,4-28,16-1.72,6.89-14,5-16,17-1.68,10.11,6.95,23,12,23h77.94c8.58,0,29.84-5.87,45.07-7.92-7.89-6.07-17.16-15-31-28.08-39.25-37.13-51.48-90.77-51.76-92,.88,1.87,56.45,119.38,123.68,124.85h0c23.37.22,32.79-12.72,38.08-20.58h0q4-2.51,7.82-5.38c11.45,12,26.17,19.44,42.31,20.09.77,0,1.55.06,2.33.06C718.83,818,750.65,777.83,745.5,732Z"/><path class="cls-3" d="M551.68,361.93a1.18,1.18,0,0,0-.07.2l.43-.37Z"/><path class="cls-4" d="M552,361.76l-.36.17a1.18,1.18,0,0,0-.07.2l.43-.37Z"/><path class="cls-5" d="M726.5,117a174.38,174.38,0,0,1-17.25,75.85l-.43.19-.11.05A294,294,0,0,0,579.18,305.44c-.65,1-1.29,2.07-1.93,3.12s-1.13,1.86-1.69,2.8c-.25.41-.49.82-.73,1.24-.57,1-1.13,1.93-1.69,2.9s-1,1.7-1.45,2.56a.43.43,0,0,0,0,.07c-.47.85-.95,1.7-1.41,2.56s-1,1.73-1.41,2.61a.75.75,0,0,0-.07.12c-.46.85-.91,1.71-1.35,2.57q-1.54,3-3,5.94c-.33.67-.66,1.34-1,2-.06.11-.11.22-.16.33-.4.83-.8,1.67-1.19,2.51-.55,1.16-1.09,2.33-1.61,3.49s-.92,2-1.37,3.06l-.21.48c-.49,1.12-1,2.24-1.44,3.37s-1,2.28-1.42,3.42l-.09.23q-.7,1.73-1.38,3.45l-.21.55c-.44,1.12-.87,2.25-1.29,3.38s-.92,2.47-1.37,3.72a1.18,1.18,0,0,0-.07.2c-.41,1.13-.8,2.26-1.19,3.4-.34,1-.68,2-1,3-.45,1.37-.9,2.74-1.33,4.13-.35,1.07-.68,2.14-1,3.21s-.6,2-.89,3q-1.71,5.84-3.17,11.77c-.19.73-.36,1.46-.53,2.19-.22.89-.43,1.79-.64,2.7s-.35,1.57-.52,2.35c-.67,3.05-1.3,6.12-1.87,9.21q-.23,1.17-.42,2.34c-.16.83-.3,1.66-.44,2.5s-.26,1.52-.38,2.28l-.27,1.72c-.19,1.22-.37,2.45-.54,3.68-.14,1-.27,1.92-.4,2.88,0,.11,0,.23,0,.35-.13,1-.25,2-.37,3-.24,2-.45,3.92-.65,5.89,0,.15,0,.29,0,.43-.1,1.06-.2,2.12-.29,3.18s-.18,2.12-.26,3.18-.16,2.12-.23,3.18c0,.2,0,.4,0,.61-.11,1.77-.21,3.55-.29,5.34,0,.16,0,.32,0,.49,0,1.07-.09,2.14-.12,3.22q-.1,3.23-.14,6.47c0,1.08,0,2.17,0,3.25q0,11.34.85,22.48c-.22.59-.45,1.18-.7,1.76s-.39.94-.61,1.4c-.11.25-.22.49-.35.74a5.62,5.62,0,0,1-.29.61q-.23.5-.48,1s0,0,0,0c-.23.46-.48.91-.73,1.36-.37.68-.77,1.35-1.18,2l-.54.85-.47.7-.13.2h0l-.86,1.23q-.87,1.21-1.83,2.37l-.88,1.05-.14.15c-.3.35-.62.7-.94,1.05s-.68.73-1,1.08-.89.89-1.35,1.33-.92.85-1.4,1.27l-.86.74-.7.57-.32.26c-.31.25-.63.5-.95.73l-.79.59-.74.53-.09.06c-.38.26-.76.52-1.15.77s-.8.52-1.2.76-.65.4-1,.59a48.74,48.74,0,0,1-4.66,2.4c-.44.2-.89.4-1.35.58l-.76.31h0q-1.71.69-3.48,1.23l-1.22.37-.34.09c-.43.13-.87.24-1.31.34l-.65.16-1.14.25c-.77.16-1.55.31-2.34.43-.57.09-1.15.17-1.72.24a6.87,6.87,0,0,1-.78.08c-.37,0-.74.09-1.11.11a3.88,3.88,0,0,1-.48,0c-.45,0-.9.07-1.36.08l-.73,0c-.57,0-1.13,0-1.7,0a49.87,49.87,0,0,1-29.8-9.87c-.14-.09-.27-.2-.41-.3a93.08,93.08,0,0,1-6.19,9.37h0c-.5.67-1,1.33-1.55,2l-.34.44c-.49.6-1,1.2-1.48,1.79-.13.16-.26.31-.4.46-.57.67-1.15,1.33-1.75,2s-1.31,1.41-2,2.1-1.32,1.36-2,2A92,92,0,0,1,286.5,460c0-74,84-123,95.41-140a68,68,0,0,0-15.55-92.35A73.37,73.37,0,0,1,423,201h2.34c0-.52,0-1,0-1.55s0-1-.05-1.55,0-1.13-.08-1.7c-.05-.86-.11-1.71-.17-2.56s-.14-1.61-.23-2.4c0-.34-.07-.68-.11-1-.05-.51-.12-1-.18-1.52-.3-2.34-.68-4.65-1.13-7a104.49,104.49,0,0,0-5.84-19.36,104.55,104.55,0,0,1,22.28,27.34c1.34,2.38,2.6,4.81,3.75,7.29l.4-1a103.4,103.4,0,0,0,6.15-23,104.48,104.48,0,0,0,1-20.2c5.81,10.35,10.48,22.22,11.83,33.22,2.57,21,23.52,51.34,23.52,51.34A73.07,73.07,0,0,1,496.5,274.5,74.66,74.66,0,0,1,496,283a73.1,73.1,0,0,1-12,32.55c-1.83,2.72-4.09,5.84-5.78,8.14C477,325.34,467,337,459.92,349.36a58.64,58.64,0,0,0-6.32,14.73,77.46,77.46,0,0,0,1,39.78c2,6.77,10.85,34.13,29.85,34.13a22,22,0,0,0,21.76-18.75,21.71,21.71,0,0,0,.24-3.25,22,22,0,0,0-22-22h-.35A98.55,98.55,0,0,1,478.52,363c0-.65,0-1.31,0-2a98.7,98.7,0,0,1,6.44-35.18v0c3.74-11.33,12.24-24.85,24.16-39a288.31,288.31,0,0,1,28.77-29.27c9.4-8.36,22.12-16.69,33-23.24,5.11-3.06,9.82-5.72,13.61-7.81l0,0c4.14-2.29,7.17-3.89,8.43-4.57a218.35,218.35,0,0,0,56.9-44.27q2.45-2.66,4.8-5.38,3-3.45,5.81-7a216.85,216.85,0,0,0,46.86-127q2.94,5.18,5.41,10.63l0,.08A173.56,173.56,0,0,1,721.43,75,175.34,175.34,0,0,1,726.5,117Z"/><path class="cls-6" d="M710.28,53.4A169.36,169.36,0,0,1,717.55,76a172,172,0,0,1,5,41,169.48,169.48,0,0,1-16.23,72.8A297.91,297.91,0,0,0,575.79,303.32q-1,1.57-1.95,3.15c-.58.94-1.15,1.89-1.7,2.81-.26.43-.51.86-.77,1.31-.57,1-1.13,1.94-1.69,2.91s-1,1.67-1.43,2.52a1.82,1.82,0,0,0-.15.27l-.34.6-1,1.88c-.46.83-.92,1.68-1.37,2.53-.06.1-.1.18-.14.26q-.66,1.21-1.35,2.58c-1,1.9-2,3.87-3.06,6-.32.66-.65,1.32-1,2-.08.14-.14.28-.21.43-.4.84-.81,1.68-1.18,2.5-.57,1.19-1.13,2.39-1.65,3.56l-.27.6c-.37.83-.75,1.66-1.12,2.5l-.1.23-.11.25c-.53,1.23-1,2.35-1.46,3.42s-1,2.31-1.44,3.47l0,.06,0,0,0,.05v.07c-.48,1.17-1,2.33-1.41,3.52-.07.19-.15.37-.22.56-.42,1.08-.86,2.23-1.29,3.38s-.95,2.57-1.35,3.68a3.15,3.15,0,0,0-.15.42c-.42,1.15-.81,2.29-1.17,3.34s-.69,2-1,3c-.44,1.35-.9,2.74-1.34,4.17-.32,1-.65,2-1,3.25-.33,1-.63,2.09-.91,3-1.17,4-2.25,8-3.21,11.91-.19.73-.36,1.47-.53,2.21v0c-.22.9-.43,1.81-.65,2.73l-.45,2-.08.35c-.73,3.33-1.35,6.38-1.89,9.32-.15.79-.29,1.59-.43,2.38s-.31,1.74-.44,2.53-.27,1.56-.39,2.34l-.27,1.72c-.2,1.25-.38,2.5-.55,3.72-.13.92-.26,1.84-.38,2.76l0,.16,0,.1v.1a1.64,1.64,0,0,0,0,.23c-.13,1-.25,2-.37,2.93-.21,1.74-.42,3.58-.66,6v.21l0,.28c-.1,1.06-.2,2.12-.28,3.14s-.19,2.17-.27,3.26-.16,2.14-.23,3.22v.07a1.21,1.21,0,0,1,0,.19c0,.13,0,.25,0,.38-.13,2-.22,3.77-.3,5.39v.18c0,.08,0,.16,0,.25v.05c0,1.1-.09,2.19-.12,3.28-.07,2.33-.12,4.48-.14,6.56,0,1.09,0,2.2,0,3.29,0,7.25.27,14.6.79,21.88-.11.28-.21.54-.31.78l0,0,0,0c-.19.47-.35.84-.51,1.18l0,.05,0,0c-.08.18-.15.34-.24.52l-.09.17-.07.18h0l-.11.22,0,.08,0,.08-.41.81-.46.84v0l-.23.41,0,0v0c-.3.54-.64,1.12-1.07,1.81l-.49.78-.09.13-.47.69c-.27.4-.55.79-.81,1.16-.52.73-1.08,1.45-1.66,2.15-.26.31-.51.62-.78.93l0,.05,0,.06-.1.11c-.27.31-.56.63-.85.94s-.6.65-.94,1-.83.83-1.22,1.21-.86.79-1.34,1.21l-.74.64,0,0-.59.48-.1.08-.1.09-.08.06-.07.06c-.31.25-.56.43-.77.59l-.06,0-.05,0-.71.53h0l0,0-.37.26-.23.17,0,0-.06,0,0,0c-.34.23-.67.46-1,.68l0,0h0l-1.05.66-.07,0-.06,0c-.25.17-.52.32-.81.49a46.65,46.65,0,0,1-4.29,2.21l-.82.36-1.15.46-.36.14-.24.1q-1.26.48-2.55.87h0l0,0-1.07.32-.23.06-.09,0-.09,0c-.29.09-.62.17-1,.27l-.1,0-.11,0-.44.11h-.05l-1,.22c-.84.18-1.52.3-2.15.4s-1.06.16-1.59.22h-.12l-.33,0h-.19l-.18,0-.8.08h-.14l-.14,0h-.16l-.17,0-1.1.06h-.24l-.54,0-1.56,0a45.93,45.93,0,0,1-27.41-9.08l-.11-.08-.07,0,0,0-.25-.19L457,500l-2.21,3.82a89.24,89.24,0,0,1-5.93,9l-.44.59-1,1.31-.05.06-.06.08-.22.29c-.47.57-.94,1.15-1.42,1.71l0,0,0,0-.23.25-.06.07-.06.07c-.57.67-1.11,1.28-1.65,1.87s-1.26,1.36-1.9,2l0,0,0,0c-.55.58-1.15,1.18-1.89,1.9A88,88,0,0,1,290.5,460c0-54.55,47.36-95.2,75.65-119.49,9.33-8,16.06-13.79,19.08-18.29a72,72,0,0,0-13.1-95.09A69.36,69.36,0,0,1,423,205h6.34v-4c0-.55,0-1.08,0-1.62s0-1.06-.05-1.62,0-1.08-.08-1.62V196c-.05-.88-.11-1.74-.17-2.61v-.07c-.06-.75-.14-1.61-.23-2.45,0-.35-.07-.7-.11-1.05s-.08-.71-.13-1.06l-.06-.53c-.3-2.35-.7-4.77-1.18-7.22-.23-1.2-.49-2.4-.77-3.6a101.75,101.75,0,0,1,9.8,14.32c1.35,2.38,2.56,4.74,3.61,7l3.93,8.47,3.42-8.68.18-.44c.08-.19.15-.37.22-.55a108.1,108.1,0,0,0,6.39-23.92c.19-1.32.36-2.65.51-4A74.42,74.42,0,0,1,459,186.52c2.6,21.22,22.43,50.55,24.11,53a69,69,0,0,1,9.43,35,72.69,72.69,0,0,1-.46,8.05,69.64,69.64,0,0,1-11.39,30.78c-1.41,2.1-3.32,4.79-5.69,8-.15.2-.66.84-1.21,1.52-3.38,4.18-11.31,14-17.3,24.51a61.88,61.88,0,0,0-6.74,15.79A81.4,81.4,0,0,0,450.82,405c3.3,11.12,13.19,37,33.68,37a26.07,26.07,0,0,0,22.59-13.13A26.11,26.11,0,0,0,510.5,416a26,26,0,0,0-23.44-25.88,94.26,94.26,0,0,1-4.54-27.22c0-.63,0-1.27,0-1.9a94.6,94.6,0,0,1,5.88-33l.57-.57v-1c3.61-10.53,11.63-23.32,23.22-37a282.7,282.7,0,0,1,28.37-28.86c7.63-6.79,18.54-14.46,32.42-22.8,4.22-2.53,8.75-5.13,13.48-7.74l.15-.08h0c3.15-1.74,5.67-3.09,7.18-3.9l1.1-.59a221.91,221.91,0,0,0,57.94-45.08c1.7-1.85,3.35-3.69,4.89-5.48,2.08-2.42,4.07-4.82,5.91-7.16A219.63,219.63,0,0,0,710.28,53.4m-2.94-15.15a216.85,216.85,0,0,1-46.86,127q-2.84,3.58-5.81,7-2.35,2.73-4.8,5.38A218.35,218.35,0,0,1,593,221.92c-1.26.68-4.29,2.28-8.43,4.57l0,0c-3.79,2.09-8.5,4.75-13.61,7.81-10.9,6.55-23.62,14.88-33,23.24a288.31,288.31,0,0,0-28.77,29.27c-11.92,14.12-20.42,27.64-24.16,39v0A98.7,98.7,0,0,0,478.5,361c0,.65,0,1.31,0,2A98.55,98.55,0,0,0,484.15,394h.35a22,22,0,0,1,22,22,22,22,0,0,1-2.88,10.89A22,22,0,0,1,484.5,438c-19,0-27.84-27.36-29.85-34.13a77.46,77.46,0,0,1-1-39.78,58.64,58.64,0,0,1,6.32-14.73c7-12.35,17.07-24,18.27-25.66,1.69-2.3,3.95-5.42,5.78-8.14A73.1,73.1,0,0,0,496,283a74.66,74.66,0,0,0,.49-8.51,73.07,73.07,0,0,0-10.05-37.13S465.5,207,462.93,186c-1.35-11-6-22.87-11.83-33.22a104.48,104.48,0,0,1-1,20.2A103.4,103.4,0,0,1,444,196l-.4,1c-1.15-2.48-2.41-4.91-3.75-7.29a104.55,104.55,0,0,0-22.28-27.34,104.49,104.49,0,0,1,5.84,19.36c.45,2.3.83,4.61,1.13,7,.06.51.13,1,.18,1.52,0,.33.08.67.11,1,.09.79.16,1.59.23,2.4s.12,1.7.17,2.56c0,.57.06,1.13.08,1.7s0,1,.05,1.55,0,1,0,1.55H423a73.37,73.37,0,0,0-56.64,26.64A68,68,0,0,1,381.91,320c-11.41,17-95.41,66-95.41,140a92,92,0,0,0,156.09,66c.69-.67,1.36-1.34,2-2s1.33-1.39,2-2.1,1.18-1.31,1.75-2c.14-.15.27-.3.4-.46.5-.59,1-1.19,1.48-1.79l.34-.44c.53-.66,1.05-1.32,1.55-2h0a93.08,93.08,0,0,0,6.19-9.37c.14.1.27.21.41.3A49.87,49.87,0,0,0,488.5,516c.57,0,1.13,0,1.7,0l.73,0c.46,0,.91,0,1.36-.08a3.88,3.88,0,0,0,.48,0c.37,0,.74-.06,1.11-.11a6.87,6.87,0,0,0,.78-.08c.57-.07,1.15-.15,1.72-.24.79-.12,1.57-.27,2.34-.43l1.14-.25.65-.16c.44-.1.88-.21,1.31-.34l.34-.09,1.22-.37q1.77-.54,3.48-1.23h0l.76-.31c.46-.18.91-.38,1.35-.58a48.74,48.74,0,0,0,4.66-2.4c.33-.19.66-.38,1-.59s.8-.5,1.2-.76.77-.51,1.15-.77l.09-.06.74-.53.79-.59c.32-.23.64-.48.95-.73l.32-.26.7-.57.86-.74c.48-.42.94-.84,1.4-1.27s.91-.88,1.35-1.33.69-.71,1-1.08.64-.7.94-1.05l.14-.15.88-1.05q1-1.15,1.83-2.37l.86-1.23h0l.13-.2.47-.7.54-.85c.41-.66.81-1.33,1.18-2,.25-.45.5-.9.73-1.36,0,0,0,0,0,0q.26-.46.48-1a5.62,5.62,0,0,0,.29-.61c.13-.25.24-.49.35-.74.22-.46.42-.93.61-1.4s.48-1.17.7-1.76q-.84-11.13-.85-22.48c0-1.08,0-2.17,0-3.25q0-3.24.14-6.47c0-1.08.07-2.15.12-3.22,0-.17,0-.33,0-.49.08-1.79.18-3.57.29-5.34,0-.21,0-.41,0-.61.07-1.06.15-2.12.23-3.18s.16-2.12.26-3.18.19-2.12.29-3.18c0-.14,0-.28,0-.43.2-2,.41-3.93.65-5.89.12-1,.24-2,.37-3,0-.12,0-.24,0-.35.13-1,.26-1.92.4-2.88.17-1.23.35-2.46.54-3.68l.27-1.72c.12-.76.25-1.52.38-2.28s.28-1.67.44-2.5.27-1.56.42-2.34c.57-3.09,1.2-6.16,1.87-9.21.17-.78.34-1.57.52-2.35s.42-1.81.64-2.7c.17-.73.34-1.46.53-2.19q1.46-5.94,3.17-11.77c.29-1,.58-2,.89-3s.65-2.14,1-3.21c.43-1.39.88-2.76,1.33-4.13.33-1,.67-2,1-3,.39-1.14.78-2.27,1.19-3.4a1.18,1.18,0,0,1,.07-.2c.45-1.25.9-2.49,1.37-3.72s.85-2.26,1.29-3.38l.21-.55q.68-1.72,1.38-3.45l.09-.23c.46-1.14.94-2.28,1.42-3.42s.95-2.25,1.44-3.37l.21-.48c.45-1,.91-2,1.37-3.06s1.06-2.33,1.61-3.49c.39-.84.79-1.68,1.19-2.51,0-.11.1-.22.16-.33.32-.67.65-1.34,1-2q1.47-3,3-5.94c.44-.86.89-1.72,1.35-2.57a.75.75,0,0,1,.07-.12q.69-1.32,1.41-2.61c.46-.86.94-1.71,1.41-2.56a.43.43,0,0,1,0-.07c.48-.86,1-1.71,1.45-2.56s1.12-1.94,1.69-2.9c.24-.42.48-.83.73-1.24.56-.94,1.12-1.87,1.69-2.8s1.28-2.08,1.93-3.12A294,294,0,0,1,708.71,193.09l.11-.05.43-.19A175.17,175.17,0,0,0,712.78,49l0-.08q-2.47-5.44-5.41-10.63Z"/><path class="cls-3" d="M551.68,361.93a1.18,1.18,0,0,0-.07.2l.43-.37Z"/><path class="cls-4" d="M552,361.76l-.36.17a1.18,1.18,0,0,0-.07.2l.43-.37Z"/><path class="cls-7" d="M376.61,259.57a67.56,67.56,0,0,1,3.92,39.52,50,50,0,0,0-68.77,13.67,49.14,49.14,0,0,1-3.75-7.25,50,50,0,0,1,53-68.77A67.75,67.75,0,0,1,376.61,259.57Z"/><path class="cls-8" d="M393,253.51c-.05.21-.11.4-.17.6-.11-.25-.22-.5-.31-.75A4.42,4.42,0,0,0,393,253.51Z"/><path class="cls-8" d="M393,253.51c-.05.21-.11.4-.17.6-.11-.25-.22-.5-.31-.75A4.42,4.42,0,0,0,393,253.51Z"/><path class="cls-9" d="M708.28,194.84l-.24.48-.4-.18C707.85,195,708.07,194.93,708.28,194.84Z"/><path class="cls-9" d="M708.28,194.84l-.24.48-.4-.18C707.85,195,708.07,194.93,708.28,194.84Z"/><path class="cls-10" d="M621.15,340.3c0,.29.07.58.09.88.33-.14.66-.25,1-.37Q621.67,340.57,621.15,340.3Zm0,0c0,.29.07.58.09.88.33-.14.66-.25,1-.37Q621.67,340.57,621.15,340.3Z"/><path class="cls-11" d="M746.38,412a94.71,94.71,0,0,0-53.92-68.09,95,95,0,0,0,51.76-43.77,94.76,94.76,0,0,0-66.58-43.44,94.59,94.59,0,0,0,29.05-49.49A282.08,282.08,0,0,0,589.36,311.8c-.63,1-1.25,2-1.88,3s-1.08,1.77-1.61,2.67l0,.05,0,.06c-.2.31-.38.62-.56.94l0,.09-.05.09c-.55.91-1.08,1.84-1.61,2.76-.42.73-.84,1.46-1.25,2.2l-.25.5-.15.21-.15.28c-.31.55-.62,1.11-.92,1.67l-.05.09,0,.1c-.43.76-.85,1.54-1.26,2.32l-.45.86,0,.06-.88,1.68,0,0,0,.05c-.93,1.79-1.87,3.65-2.87,5.68l-.92,1.88-.14.29h0l-.08.17c-.35.7-.7,1.46-1.07,2.25l0,.05,0,0c-.51,1.09-1,2.19-1.51,3.28l-.27.6q-.52,1.15-1,2.34l-.21.48c-.49,1.13-.93,2.16-1.35,3.17v0c-.44,1.05-.88,2.09-1.31,3.14a4.08,4.08,0,0,1-.17.42c-.44,1.09-.87,2.17-1.29,3.23,0,.11-.09.23-.13.35l0,.12,0,.12c-.39,1-.8,2-1.21,3.17l0,.05,0,.05c-.42,1.11-.85,2.27-1.22,3.3v0l-.13.37A279.94,279.94,0,0,0,546.5,461c0,7.14.27,14.4.82,21.58l.19,2.62-.92,2.47c-.3.83-.58,1.53-.86,2.19s-.52,1.23-.78,1.78l0,.07L539.69,501l-.07.09-.23.33-.6.86-.07.1-.07.09-.29.39L536,506.09h-.25l-.39.46-.3.35-.1.1-1,1.06c-.49.53-.91,1-1.33,1.39-1.07,1.1-2.2,2.16-3.35,3.17-.37.33-.76.66-1.16,1l-.66.55-.63.5-.14.11c-.37.29-.7.55-1,.78A57,57,0,0,1,521,518.8c-.51.32-1,.59-1.33.8l-.8.46L509,524.52c-.68.23-1.36.46-2,.67l-1.45.44-.11,0-.1,0-.29.08c-.5.14-1,.28-1.6.41l-.84.21-1.43.31c-1.11.23-2,.4-2.94.54-.62.1-1.27.19-1.94.27-.44.06-.86.11-1.27.14s-.78.09-1.15.11-.51,0-.84.07l-1.5.09-.82,0h-.08c-.72,0-1.41,0-2.12,0a61.56,61.56,0,0,1-21.05-3.68c-1.86-.67-3.69-1.43-5.47-2.28l-.29.39A105.49,105.49,0,0,1,451,534.61c-.47.45-.94.9-1.42,1.34A83,83,0,0,0,494,575.83,83.05,83.05,0,0,0,518.34,541a82,82,0,0,0,4.9-23.64,94.22,94.22,0,0,0,74.85,40.13,95.11,95.11,0,0,0,13-43.12c0-.38,0-.78.05-1.17a94.32,94.32,0,0,0-1.71-22.3,94.66,94.66,0,0,0,93.84,6A95,95,0,0,0,684,434.38,95,95,0,0,0,746.38,412ZM621.24,341.18c0-.3,0-.59-.09-.88q.52.27,1.08.51C621.9,340.93,621.57,341,621.24,341.18Z"/><path class="cls-12" d="M547.89,480.34l-.37,0,.25-2.74Z"/><path class="cls-13" d="M433,221.22a76.07,76.07,0,0,1-30.08,29.92,76,76,0,0,0-10.26-16.68A75.25,75.25,0,0,0,433,221.22Z"/></g><g id="Layer_2" data-name="Layer 2"><path class="cls-14" d="M1023.5,271q-4.2-20.29-23.8-20.3t-25.55,9.45q-6,9.45-5.95,29.75V418h42v10.5h-42V768H943.7V428.5h-21V418h21V287.1q0-44.1,53.2-44.1,30.79,0,35.7,25.9Z"/><path class="cls-15" d="M1026.29,590.2q0-43.4,54.6-43.4a79.56,79.56,0,0,1,26.6,4.2V460.7q0-20.29-5.6-29.75t-22.4-9.45q-16.8,0-22.75,9.45t-6,29.75v44.1h-24.5V457.9q0-44.1,52.85-44.1T1132,460V768h-24.5v-1.4q-11.91,4.89-30.1,4.9-51.11,0-51.1-44.8Zm29.4,163.1q4.89,8.4,21,8.4t22.75-6.3q6.64-6.3,8-23.1V597.2q0-22.4-4.55-31.15t-21.7-8.75q-17.16,0-23.8,7.35t-6.65,27.65V724.6Q1050.79,744.91,1055.69,753.3Z"/><path class="cls-16" d="M1160.68,457.9q0-44.1,52.85-44.1t52.85,46.2v44.1h-24.5V460.7q0-20.29-5.6-29.75t-22.4-9.45q-16.8,0-22.75,9.45t-6,29.75v50.4q0,21,7,32.9a154.68,154.68,0,0,0,24.15,29q14.34,13.65,22.05,22.4a117.28,117.28,0,0,1,14,19.95,112,112,0,0,1,14,55.3v56.7q0,44.1-52.85,44.1t-52.85-46.2V677h24.5v47.6q0,20.31,5.6,29.75t22.4,9.45q16.8,0,22.75-9.45t6-29.75v-49q0-44.1-21.7-70a225.13,225.13,0,0,0-20-20.3,233.09,233.09,0,0,1-26.25-29q-13.31-17.14-13.3-42.35Z"/><path class="cls-17" d="M1295.07,498.77h21V418h24.5v80.77h42v8.08h-42V731.92q0,29.63,23.8,29.62a59.41,59.41,0,0,0,14.7-1.62l2.8,5.93q-7.71,2.14-24.5,2.15t-29-8.88q-12.25-8.89-12.25-25V506.85h-21Z"/><path class="cls-18" d="M1408.46,457.9q0-44.1,52.85-44.1t52.85,46.2v44.1h-24.5V460.7q0-20.29-5.6-29.75t-22.4-9.45q-16.8,0-22.75,9.45t-6,29.75v50.4q0,21,7,32.9a154.68,154.68,0,0,0,24.15,29q14.34,13.65,22.05,22.4a117.28,117.28,0,0,1,14,19.95,112,112,0,0,1,14,55.3v56.7q0,44.1-52.85,44.1t-52.85-46.2V677H1433v47.6q0,20.31,5.6,29.75t22.4,9.45q16.8,0,22.75-9.45t6-29.75v-49q0-44.1-21.7-70a225.13,225.13,0,0,0-20-20.3,233.09,233.09,0,0,1-26.25-29q-13.3-17.14-13.3-42.35Z"/><path class="cls-19" d="M1542.15,457.2q0-43.4,52.85-43.4t52.85,44.8V595.8q-.7,23.1-14.7,32.9t-35,9.8q-21,0-31.5-4.2v90.3q0,20.31,5.6,29.75t22.4,9.45q16.8,0,22.75-9.45t5.95-29.75V677h24.5v50.4q0,44.1-52.85,44.1t-52.85-46.2Zm24.5,133.7q0,21.71,4.55,29.4t21.7,7.7q17.14,0,23.8-7.35t6.65-27.65V460.7q0-20.29-4.9-28.7t-21.7-8.4q-16.8,0-23.45,7.7t-6.65,28Z"/><path class="cls-20" d="M1677.24,457.9q0-44.1,52.85-44.1t52.85,46.2v44.8h-24.5V460.7q0-20.29-5.6-29.75t-22.4-9.45q-16.8,0-22.75,9.45t-6,29.75V724.6q0,20.31,5.6,29.75t22.4,9.45q16.8,0,22.75-9.45t6-29.75V677h24.5v50.4q0,44.1-52.85,44.1t-52.85-46.2Z"/><path class="cls-21" d="M1916.63,418V768h-21v-.7q-14,6.3-33.6,6.3-51.1,0-51.1-44.8V418h24.5V726q0,21,4.9,29t21,8.05q16.1,0,22.75-6t8.05-22.75V418Z"/><path class="cls-22" d="M1969.12,418v.7q11.89-4.89,30.1-4.9,51.79,0,51.8,46.2v48.3h-24.5V460.7q0-21.69-5.6-30.45t-22.4-8.75q-16.8,0-22.75,9.45t-6,29.75V768h-24.5V418Z"/><path class="cls-23" d="M2079.71,768V518h24.5V768Zm4.9-310-1.4-40h18.2l-1.4,40Z"/><path class="cls-24" d="M2133.61,498.77h21V418h24.5v80.77h42v8.08h-42V731.92q0,29.63,23.8,29.62a59.41,59.41,0,0,0,14.7-1.62l2.8,5.93q-7.71,2.14-24.5,2.15t-29-8.88q-12.26-8.89-12.25-25V506.85h-21Z"/><path class="cls-25" d="M2242.1,898.9a46.13,46.13,0,0,0,11.2,1.4q16.8,0,22.75-11.55a82.11,82.11,0,0,0,8-25.55l14.7-95.9L2244.2,418h24.5l42,269.5L2352,418h10.5l-67.9,445.2q-7.71,44.79-39.2,44.8h-9.1a18.75,18.75,0,0,1-7-1.4Z"/></g></svg>